<?xml version="1.0"?>
<svg xmlns="http://www.w3.org/2000/svg" xmlns:xlink="http://www.w3.org/1999/xlink" version="1.1" id="Layer_1" x="0px" y="0px" viewBox="0 0 512 512" style="enable-background:new 0 0 512 512;" xml:space="preserve" width="100px" height="100px"><g><g>
	<g>
		<g>
			<path d="M469.333,282.895V106.667c0-23.531-19.135-42.667-42.667-42.667h-198.25l-39.542-39.542c-2-2-4.708-3.125-7.542-3.125     H42.667C19.135,21.333,0,40.469,0,64v298.667c0,23.531,19.135,42.667,42.667,42.667h239.215     c13.977,49.173,59.191,85.333,112.785,85.333c64.698,0,117.333-52.635,117.333-117.333     C512,336.977,495.376,304.434,469.333,282.895z M277.874,384H42.667c-11.76,0-21.333-9.573-21.333-21.333V64     c0-11.76,9.573-21.333,21.333-21.333h134.25l39.542,39.542c2,2,4.708,3.125,7.542,3.125h202.667     c11.76,0,21.333,9.573,21.333,21.333v162.286C431.977,260.733,413.879,256,394.667,256c-64.698,0-117.333,52.635-117.333,117.333     C277.333,376.934,277.555,380.482,277.874,384z M394.667,469.333c-52.938,0-96-43.063-96-96c0-52.938,43.063-96,96-96     s96,43.063,96,96C490.667,426.271,447.604,469.333,394.667,469.333z" data-original="#000000" class="active-path" data-old_color="#000000" fill="#1cb9c8"/>
			<path d="M437.333,362.667h-32v-32c0-5.896-4.771-10.667-10.667-10.667S384,324.771,384,330.667v32h-32     c-5.896,0-10.667,4.771-10.667,10.667c0,5.896,4.771,10.667,10.667,10.667h32v32c0,5.896,4.771,10.667,10.667,10.667     s10.667-4.771,10.667-10.667v-32h32c5.896,0,10.667-4.771,10.667-10.667C448,367.438,443.229,362.667,437.333,362.667z" data-original="#000000" class="active-path" data-old_color="#000000" fill="#1cb9c8"/>
		</g>
	</g>
</g></g> </svg>
