<svg id="Layer_1" enable-background="new 0 0 506.586 506.586" height="512" viewBox="0 0 506.586 506.586" width="512" xmlns="http://www.w3.org/2000/svg"><path d="m468.986 290.436-18.027-33.05-10.624-36.121c-1.535-5.219-5.616-9.3-10.835-10.835l-36.122-10.625-33.05-18.027c-4.777-2.605-10.549-2.605-15.324 0l-33.049 18.027-36.122 10.624c-5.219 1.535-9.3 5.616-10.835 10.835l-10.624 36.122-18.027 33.05c-2.605 4.776-2.605 10.548 0 15.323l18.026 33.05 10.625 36.122c1.535 5.219 5.616 9.3 10.835 10.835l36.122 10.625c34.639 18.893 35.158 19.98 40.711 19.98 5.44 0 4.644-.308 40.712-19.98l36.122-10.625c5.219-1.535 9.3-5.616 10.835-10.835l10.624-36.121 18.027-33.05c2.606-4.777 2.606-10.548 0-15.324zm-116.319 41.494c-18.685 0-33.833-15.147-33.833-33.832 0-18.686 15.147-33.833 33.833-33.833s33.832 15.147 33.832 33.833c0 18.685-15.147 33.832-33.832 33.832z"/><path d="m405.694 426.124c-30.055 16.393-37.313 22.247-53.027 22.247-14.999 0-20.149-4.315-53.026-22.247l-22.778-6.7v71.143c0 12.655 14.047 20.307 24.681 13.44l51.124-33.019 51.125 33.019c10.63 6.867 24.681-.784 24.681-13.44v-71.143z"/><path d="m244.861 402.751c-9.613-10.557-10.427-18.329-20.222-51.627l-16.386-30.043c-7.851-14.389-7.852-31.575.001-45.97l16.386-30.041 9.658-32.836c4.626-15.728 16.777-27.879 32.504-32.505l32.836-9.658 30.041-16.387c12.128-6.615 26.233-7.633 38.986-3.1v-134.584c0-8.837-7.163-16-16-16h-301.019c-8.837 0-16 7.163-16 16v420.608c0 8.837 7.163 16 16 16h193.216v-49.857zm-134.225-320.336c0-8.837 7.163-16 16-16h151.041c8.837 0 16 7.163 16 16s-7.163 16-16 16h-151.041c-8.837 0-16-7.164-16-16zm47.533 56.823c0-8.837 7.163-16 16-16h55.974c8.837 0 16 7.163 16 16s-7.163 16-16 16h-55.974c-8.837 0-16-7.163-16-16z"/></svg>